<svg xmlns="http://www.w3.org/2000/svg" version="1.1" xmlns:xlink="http://www.w3.org/1999/xlink" xmlns:svgjs="http://svgjs.dev/svgjs" width="1500" height="1687" viewBox="0 0 1500 1687"><g transform="matrix(1,0,0,1,0.00011015625000254659,0)"><svg viewBox="0 0 320 360" data-background-color="#b19dd0" preserveAspectRatio="xMidYMid meet" height="1687" width="1500" xmlns="http://www.w3.org/2000/svg" xmlns:xlink="http://www.w3.org/1999/xlink"><g id="tight-bounds" transform="matrix(1,0,0,1,0.000023499999997511622,0)"><svg viewBox="0 0 320 360" height="360" width="320"><g><svg></svg></g><g><svg viewBox="0 0 320 360" height="360" width="320"><g><path transform="translate(-74.99272,-51.79039) scale(4.65793,4.65793)" d="M20.6 59.9l0.8 1-0.4-1.3c-0.1-0.6-0.8 0.1-0.4 0.3M21.5 59.3c0.3 0.5 0.6 1 0.6 1.5 0 0.7 0.6 1 1.1 1.2-0.7-0.8-1.1-3-1.7-2.7M59.9 16.9c1.7 0 3.3-0.2 5.1 0.2 4.4 1.1 8.1 3.3 10.6 6.4l7 11.2c0.3 2.8 0.9 5.9 0.8 9.3 0.7 0 0.6-1 1.4-1.2-0.8 2-1.2 4.5-1.4 7.4-0.5-1.6 0-4 0.1-5.3-0.7 1.1-1.1 0.3-1.1-0.2 0.1-0.8-0.3-0.7-0.6-1-1.1-1-1.8-2.1-2.6-3.8 0.5-1.3 0.6-3.2-1-4.2-0.5-0.3-1.1-0.8-1.4-1.6-0.4-1.1-1.1-2.4-0.9-4.1 0.1-0.5-1.5 1.1-2.4 0.4-3.9-2.7-7.8-5.8-12.5-8.4-2.5 0-4.3-0.9-5.2-2-0.8-1-0.2-2.3 1-2.4 0.7 0 1.5-0.2 2.1 0.2 0.1-0.4 0.5-0.9 1-0.9M50 14.6l0.2 0.1c1 0.2 1.5 1.6 2.6 1.1 0 0.7 0.1 1.4-0.1 1.9-0.3 0.8-1.2 0.8-1.9 0.8-6.7-0.4-10.6 2.4-14.7 4.8-1.1 0.7-2.3 1.2-3.2 2.1-4.3 4-9 7.7-10.1 15.1l-0.9 8.2c-0.1 0.9-1.1 1.8-0.9 2.9l0.7 4.9c-0.7-0.7-1.1 0.2-0.9 0.6 0.1 0.3 0.5 1.3 1.1 0.4 0.8 1.5 1.6 4.4 2.7 5.7 3.4 4 7.8 7.6 11.4 11.2 0.9-0.2 1.6-0.2 1.8-0.8 0.3 0.6-0.3 1.2-0.8 1.3 1.6 1 3.4 1.9 5.8 2.1 3.1 0.2 6 0.7 8.7 1.4 1.4-0.4 2.8-0.6 4.3-0.7 0.5 0 0.8-0.8 1.4-1l0.1-1c0.6 0.9 0.5-0.3 0.1-0.9 0.7 0.6 0.9 1.1 1.2 1.5 0-0.3 0.8-1.4 0.8-0.1l0.2-1.3c0.3-0.2 0.4 1.1 0.7 0.2 0.3-0.9 0.9-0.2 1.5-0.5-0.2 0.4-0.1 1.2 0.6 0.7l0.8-0.7c0.5 1.2 1.3 0.7 1.7 0.5 4.4-2.8 8.8-6.1 13-9.4l-0.1 1.3 0.5-1.6c0.5 0.5 0.9 0.1 1.1-0.2 0.6-1 1.4-2 2.7-2.9-1.6 4.3-3.5 7.7-5.9 10.5l-1 1.2c0 0.7-0.2 1.6-1 1.7-0.4 0.1-1.2-0.2-1.8 0.4-0.3 0.4 0.7 1.2-0.1 0.6-0.7-0.5-1.4 0-2.2 0.2-0.6 0.2 0.4 0.8 0.6 1.2 0.2 0.4 0.4 0.8 0.3 1.3l-1.1-1.2c-1.3 0.7-2.1 2-3.2 3-0.5 0.4-0.3 1.1-0.3 1.7-0.7 0-1.5-0.2-1.9 0.2-0.3 0.4-0.2 1-0.2 1.6-1-0.1-1.1-1.6-2-1.3-0.9 0.2-1.9 0.3-2.7 0.8 0.6 1.2-1 0.5-0.8 0.7-1.5-0.9-2.8-1.6-4.4-1-3.4-1.1-7.6-0.6-10.7-0.2 0-0.5 0.1-1-0.1-1.1-0.2 0.5-0.8 0.3-0.7 0.3-1.9-1.3-3.8-2.1-5.8-3.2-1.8 0.2-3.5-0.7-4-1.2-1.4-1.3-3-0.6-4.3-0.9-2.8-0.7-3.8-3.6-4.1-5.6-0.2-1-1-1.4-1.3-1.3-1.3-4.2-3.3-8-4.9-11.9-0.4-1-0.3-2-0.3-3.1 0.5 0.2 1 0.1 0.9-0.6-0.5-3.3-1.7-5.8-3-8.2 0.7-3.4 0.8-7.4 2.4-10.4 1.4-2.7 4-4.1 5.8-6.4 0.6-0.8 0.6-1.9 1.2-2.6 2-2 4-4.1 6.2-5.9 1-0.8 2.2 0 3.7-0.3 0.5-1.8 2.5-3.4 4.4-2.9 0.8 0.2 2.4-1.9 2.9-2.1 0.8-0.3 0.4 0.8 0.4 1.5 1.9-1.5 4.5-2.3 6.9-3.2" fill="#7a26c1" fill-rule="nonzero" stroke="none" stroke-width="1" stroke-linecap="butt" stroke-linejoin="miter" stroke-miterlimit="10" stroke-dasharray="" stroke-dashoffset="0" font-family="none" font-weight="none" font-size="none" text-anchor="none" style="mix-blend-mode: normal" data-fill-palette-color="tertiary"></path></g><g transform="matrix(1,0,0,1,121.30422013477356,90)"><svg viewBox="0 0 77.39155973045288 180" height="180" width="77.39155973045288"><g><svg viewBox="0 0 77.39155973045288 180" height="180" width="77.39155973045288"><g><svg viewBox="0 0 120.77649034424857 280.90619103274565" height="180" width="77.39155973045288"><g transform="matrix(1,0,0,1,0,100.90619103274562)"><svg viewBox="0 0 120.77649034424857 180.00000000000003" height="180.00000000000003" width="120.77649034424857"><g id="textblocktransform"><svg viewBox="0 0 120.77649034424857 180.00000000000003" height="180.00000000000003" width="120.77649034424857" id="textblock"><g><svg viewBox="0 0 120.77649034424857 180.00000000000003" height="180.00000000000003" width="120.77649034424857"><g transform="matrix(1,0,0,1,0,0)"><svg width="120.77649034424857" viewBox="0.323125 -37.0125 24.972548809363996 37.212500000000006" height="180.00000000000003" data-palette-color="#7a26c1"><path d="M23.55-30.5L23.55-30.5Q23.5-29.9 23.33-29.08 23.15-28.25 22.9-27.53 22.65-26.8 22.4-26.3 22.15-25.8 22-25.9L22-25.9Q21.95-25.9 21.95-26.15 21.95-26.4 21.95-26.73 21.95-27.05 22-27.35 22.05-27.65 22.05-27.8L22.05-27.8Q22.2-28.6 22.25-29.3 22.3-30 22.4-30.75L22.4-30.75Q22.5-31.7 22.53-32.55 22.55-33.4 22.4-34.3L22.4-34.3Q22.4-34.4 22.35-34.55 22.3-34.7 22.4-34.7L22.4-34.7Q22.55-34.7 22.75-34.48 22.95-34.25 23-34.15L23-34.15Q23.3-33.55 23.48-32.75 23.65-31.95 23.55-30.5ZM24.2-34L24.2-34Q25.05-32 25.23-30.03 25.4-28.05 25.13-26.08 24.85-24.1 24.18-22.15 23.5-20.2 22.65-18.35L22.65-18.35Q21.5-15.85 20.23-13.45 18.95-11.05 17.75-8.75 16.55-6.45 15.53-4.28 14.5-2.1 13.9 0L13.9 0Q13.8 0.25 13.68 0.2 13.55 0.15 13.55 0L13.55 0Q13.45-2.4 14.25-4.83 15.05-7.25 16.28-9.7 17.5-12.15 18.93-14.63 20.35-17.1 21.5-19.65L21.5-19.65Q22.25-21.25 22.85-23 23.45-24.75 23.83-26.6 24.2-28.45 24.28-30.28 24.35-32.1 24-33.85L24-33.85Q23.9-34.3 24-34.25L24-34.25Q24.05-34.25 24.2-34ZM7.95-14.45L7.95-14.45Q7.95-14.3 7.93-13.83 7.9-13.35 7.75-13.35L7.75-13.35Q7.65-13.3 7.5-13.73 7.35-14.15 7.25-14.4L7.25-14.4Q7.05-15.05 6.8-15.98 6.55-16.9 6.33-17.88 6.1-18.85 5.93-19.8 5.75-20.75 5.7-21.45L5.7-21.45Q5.65-21.8 5.5-22.83 5.35-23.85 5.1-25.25 4.85-26.65 4.53-28.25 4.2-29.85 3.83-31.33 3.45-32.8 3.05-33.98 2.65-35.15 2.25-35.7L2.25-35.7Q2-36.05 2.1-36.15L2.1-36.15Q2.2-36.25 2.35-36.13 2.5-36 2.6-35.9L2.6-35.9Q3.4-35.3 4.13-34.2 4.85-33.1 5.45-31.85 6.05-30.6 6.45-29.28 6.85-27.95 7-26.9L7-26.9Q7.45-23.95 7.65-20.65 7.85-17.35 7.95-14.45ZM11.1-7.4L11.1-7.4Q10.1-10.75 9.5-14.3 8.9-17.85 8.45-21.45L8.45-21.45Q8.1-24.1 7.65-26.75 7.2-29.4 6.25-32.25L6.25-32.25Q6.15-32.5 6.15-32.52 6.15-32.55 6.25-32.6L6.25-32.6Q6.35-32.6 6.6-32.35L6.6-32.35Q7.65-31.3 8.38-29.1 9.1-26.9 9.63-24.43 10.15-21.95 10.5-19.63 10.85-17.3 11.1-15.9L11.1-15.9Q11.35-14.75 11.53-13.55 11.7-12.35 11.8-11.15L11.8-11.15Q12.15-12.5 12.75-13.93 13.35-15.35 13.98-16.7 14.6-18.05 15.23-19.23 15.85-20.4 16.25-21.25L16.25-21.25Q17.3-23.5 18.65-25.78 20-28.05 21.15-29.6L21.15-29.6Q21.6-30.2 21.65-30.2L21.65-30.2Q21.75-30.1 21.68-29.88 21.6-29.65 21.5-29.4L21.5-29.4Q20.5-25.8 18.78-22.4 17.05-19 15.3-15.55L15.3-15.55Q14.3-13.65 13.3-11.7 12.3-9.75 11.8-7.35L11.8-7.35Q11.7-6.8 11.53-6.68 11.35-6.55 11.1-7.4ZM12.65 0L12.65 0Q12.8 0.1 12.73 0.13 12.65 0.15 12.5 0.05L12.5 0.05Q10.55-0.85 9.15-2.43 7.75-4 6.78-5.95 5.8-7.9 5.2-10.1 4.6-12.3 4.2-14.45L4.2-14.45Q3.65-17.45 3.35-20.45 3.05-23.45 2.68-26.33 2.3-29.2 1.8-31.83 1.3-34.45 0.4-36.65L0.4-36.65Q0.35-36.75 0.33-36.83 0.3-36.9 0.4-37L0.4-37Q0.45-37.05 0.55-36.9 0.65-36.75 0.7-36.65L0.7-36.65Q2.25-34.55 3.03-31.88 3.8-29.2 4.2-26.23 4.6-23.25 4.88-20.13 5.15-17 5.7-14.05L5.7-14.05Q6.05-12.15 6.65-10.18 7.25-8.2 8.1-6.33 8.95-4.45 10.08-2.83 11.2-1.2 12.65 0ZM12.4-1.25L12.4-1.25Q12.1-1.55 11.63-2.05 11.15-2.55 10.75-3.1L10.75-3.1Q10.45-3.6 10.1-4.42 9.75-5.25 9.47-6.05 9.2-6.85 9.08-7.48 8.95-8.1 9.1-8.15L9.1-8.15Q9.15-8.15 9.33-7.93 9.5-7.7 9.65-7.4 9.8-7.1 9.95-6.83 10.1-6.55 10.2-6.45L10.2-6.45Q10.6-5.75 10.9-5.18 11.2-4.6 11.45-3.95L11.45-3.95Q11.75-3.3 12.08-2.83 12.4-2.35 12.45-2.4L12.45-2.4Q12.5-2.4 12.48-2.68 12.45-2.95 12.43-3.3 12.4-3.65 12.38-3.98 12.35-4.3 12.35-4.45L12.35-4.45Q12.25-6.35 12.68-7.85 13.1-9.35 13.65-10.6L13.65-10.6Q14.8-13.15 16.35-15.7 17.9-18.25 19.5-20.5L19.5-20.5Q19.6-20.6 19.9-20.95 20.2-21.3 20.3-21.25L20.3-21.25Q20.45-21.2 20.33-20.78 20.2-20.35 20.15-20.2L20.15-20.2Q19.95-19.6 19.63-18.8 19.3-18 18.95-17.13 18.6-16.25 18.23-15.45 17.85-14.65 17.55-14.1L17.55-14.1Q17.4-13.8 17-12.95 16.6-12.1 16.1-10.88 15.6-9.65 15.05-8.25 14.5-6.85 14.03-5.53 13.55-4.2 13.25-3.1 12.95-2 12.95-1.35L12.95-1.35Q12.95-1 12.8-1L12.8-1Q12.65-1 12.4-1.25Z" opacity="1" transform="matrix(1,0,0,1,0,0)" fill="#7a26c1" class="wordmark-text-0" data-fill-palette-color="primary" id="text-0"></path></svg></g></svg></g></svg></g></svg></g><g transform="matrix(1,0,0,1,23.068309655751477,0)"><svg viewBox="0 0 74.63987103274562 74.63987103274562" height="74.63987103274562" width="74.63987103274562"><g><svg xmlns="http://www.w3.org/2000/svg" xmlns:xlink="http://www.w3.org/1999/xlink" version="1.1" x="0" y="0" viewBox="0 0 32 32" style="enable-background:new 0 0 32 32;" xml:space="preserve" height="74.63987103274562" width="74.63987103274562" class="icon-icon-0" data-fill-palette-color="accent" id="icon-0"><g fill="#6936f5" data-fill-palette-color="accent"><path d="M12 28H2.498C1.121 28 0 26.879 0 25.502V6.48C0 5.113 1.113 4 2.48 4h9.429c0.552 0 1 0.448 1 1s-0.448 1-1 1H2.48C2.215 6 2 6.215 2 6.48v19.021C2 25.771 2.228 26 2.498 26H12c0.552 0 1 0.447 1 1S12.552 28 12 28z" fill="#6936f5" data-fill-palette-color="accent"></path><path d="M28.09 27c0-0.55 0.45-1 1-1l0 0c0.55 0 1 0.45 1 1l0 0c0 0.55-0.45 1-1 1l0 0C28.54 28 28.09 27.55 28.09 27zM25.09 27c0-0.55 0.45-1 1-1l0 0c0.55 0 1 0.45 1 1l0 0c0 0.55-0.45 1-1 1l0 0C25.54 28 25.09 27.55 25.09 27zM22.09 27c0-0.55 0.45-1 1-1l0 0c0.55 0 1 0.45 1 1l0 0c0 0.55-0.45 1-1 1l0 0C22.54 28 22.09 27.55 22.09 27zM19.09 27c0-0.55 0.45-1 1-1l0 0c0.55 0 1 0.45 1 1l0 0c0 0.55-0.45 1-1 1l0 0C19.54 28 19.09 27.55 19.09 27zM30 25.27c0-0.55 0.45-1 1-1l0 0c0.55 0 1 0.45 1 1l0 0c0 0.561-0.45 1-1 1l0 0C30.45 26.27 30 25.83 30 25.27zM30 22.27c0-0.55 0.45-1 1-1l0 0c0.55 0 1 0.45 1 1l0 0c0 0.561-0.45 1-1 1l0 0C30.45 23.27 30 22.83 30 22.27zM30 19.27c0-0.55 0.45-1 1-1l0 0c0.55 0 1 0.45 1 1l0 0c0 0.561-0.45 1-1 1l0 0C30.45 20.27 30 19.83 30 19.27zM30 16.28c0-0.56 0.45-1.01 1-1.01l0 0c0.55 0 1 0.45 1 1.01l0 0c0 0.55-0.45 0.99-1 0.99l0 0C30.45 17.27 30 16.83 30 16.28zM30 13.27c0-0.55 0.45-0.99 1-0.99l0 0c0.55 0 1 0.44 1 0.99l0 0c0 0.56-0.45 1.01-1 1.01l0 0C30.45 14.28 30 13.83 30 13.27zM30 10.28c0-0.56 0.45-1.01 1-1.01l0 0c0.55 0 1 0.45 1 1.01l0 0c0 0.55-0.45 0.99-1 0.99l0 0C30.45 11.27 30 10.83 30 10.28zM30 7.27c0-0.55 0.45-0.99 1-0.99l0 0c0.55 0 1 0.44 1 0.99l0 0c0 0.56-0.45 1.01-1 1.01l0 0C30.45 8.28 30 7.83 30 7.27zM29.55 6c0 0 0 0-0.01 0l0 0c-0.55-0.05-0.95-0.53-0.91-1.08l0 0c0.05-0.55 0.53-0.96 1.09-0.91h-0.01c0.55 0.05 0.96 0.53 0.92 1.08l0 0c-0.05 0.52-0.48 0.92-1 0.92l0 0C29.6 6.01 29.569 6 29.55 6zM25.63 5c0-0.55 0.45-1 1-1l0 0c0.55 0 1 0.45 1 1l0 0c0 0.55-0.45 1-1 1l0 0C26.08 6 25.63 5.55 25.63 5zM22.63 5c0-0.55 0.45-1 1-1l0 0c0.55 0 1 0.45 1 1l0 0c0 0.55-0.45 1-1 1l0 0C23.08 6 22.63 5.55 22.63 5zM19.63 5c0-0.55 0.45-1 1-1l0 0c0.55 0 1 0.45 1 1l0 0c0 0.55-0.45 1-1 1l0 0C20.08 6 19.63 5.55 19.63 5z" fill="#6936f5" data-fill-palette-color="accent"></path><path d="M16 32c-0.552 0-1-0.447-1-1V1c0-0.552 0.448-1 1-1s1 0.448 1 1v30C17 31.553 16.552 32 16 32z" fill="#6936f5" data-fill-palette-color="accent"></path></g></svg></g></svg></g><g></g></svg></g></svg></g></svg></g></svg></g><defs></defs></svg><rect width="320" height="360" fill="none" stroke="none" visibility="hidden"></rect></g></svg></g></svg>